<?xml version="1.0" standalone="no"?>
<!DOCTYPE svg PUBLIC "-//W3C//DTD SVG 20010904//EN"
 "http://www.w3.org/TR/2001/REC-SVG-20010904/DTD/svg10.dtd">
<svg version="1.0" xmlns="http://www.w3.org/2000/svg"
 width="364.000000pt" height="364.000000pt" viewBox="0 0 364.000000 364.000000"
 preserveAspectRatio="xMidYMid meet">
<metadata>
Created by potrace 1.11, written by Peter Selinger 2001-2013
</metadata>
<g transform="translate(0.000000,364.000000) scale(0.100000,-0.100000)"
fill="#000000" stroke="none">
<path d="M4 3601 c-2 -2 -4 -806 -4 -1786 l0 -1783 290 0 290 -1 0 888 0 889
410 0 c225 0 410 -3 410 -7 1 -3 3 -139 5 -301 2 -162 6 -304 8 -315 3 -11 8
-49 12 -85 3 -36 10 -81 15 -100 5 -19 12 -47 15 -62 3 -16 7 -40 11 -55 10
-54 64 -199 100 -273 112 -231 293 -407 507 -493 61 -25 151 -53 193 -61 41
-8 99 -17 134 -22 54 -6 261 -6 300 0 19 3 58 8 85 11 60 7 110 19 190 47 252
87 428 260 549 541 14 31 23 57 21 57 -2 0 2 18 10 40 22 61 43 155 62 265 13
83 17 208 20 750 l5 650 -1531 -1 -1531 -1 0 357 0 358 928 0 c510 1 933 1
940 1 9 1 12 57 12 246 l0 245 -22 1 c-88 3 -2431 3 -2434 0z m3143 -2094 c-3
-166 -8 -318 -12 -337 -46 -245 -143 -404 -287 -472 -104 -49 -163 -62 -298
-62 -69 0 -138 2 -155 6 -16 4 -43 10 -60 13 -16 3 -63 21 -104 40 -83 40
-170 121 -215 201 -32 57 -73 173 -87 247 -5 29 -11 63 -14 77 -11 57 -18 206
-17 385 0 105 1 193 1 197 1 4 283 7 627 6 l626 0 -5 -301z"/>
</g>
</svg>
